# xmcd
#
# Track frame offsets: 
#        150
#        4737
#        22572
#        40044
#        56949
#        58716
#        74987
#        95878
#        112778
#        129690
#        147642
#        148720
#        168175
#        184081
#        199915
#        218620
#        237925
#
# Disc length: 3192 seconds
#
# Revision: 0
# Processed by: cddbd v1.5.2PL0 Copyright (c) Steve Scherf et al.
# Submitted via: ExactAudioCopy v0.99pb4
#
DISCID=fd0c7611
DTITLE=Fingazz - The Late Night Hype
DYEAR=2007
DGENRE=Hip-Hop
TTITLE0=Intro
TTITLE1=My Boo Remix
TTITLE2=Let It Roll Feat. Steelo
TTITLE3=Don't Let Me Go Feat. Track Team
TTITLE4=West Coast Style Interlude
TTITLE5=West Coast Feat. Yun A and Sage, Diamonique
TTITLE6=Tell Me Why Feat. Trigga The Gambler
TTITLE7=I Do It For You Feat. Lunch, Diamonique
TTITLE8=Share My World Feat. Stigma
TTITLE9=Aint Nothin To It Feat. Roscoe, Bad Azz, Krook, Eastwood
TTITLE10=Skit
TTITLE11=Everything Is Gonna Be Alright Feat. T-Weaponz
TTITLE12=I Can't Wait Feat. Big Meech
TTITLE13=Luxury Livin Feat. The Generals
TTITLE14=Sex Buddy Feat. Roscoe
TTITLE15=Summetime Feat. Boss Solo
TTITLE16=Outro
EXTD=
EXTT0=
EXTT1=
EXTT2=
EXTT3=
EXTT4=
EXTT5=
EXTT6=
EXTT7=
EXTT8=
EXTT9=
EXTT10=
EXTT11=
EXTT12=
EXTT13=
EXTT14=
EXTT15=
EXTT16=
PLAYORDER=
